<?xml version="1.0" standalone="no"?>
<!DOCTYPE svg PUBLIC "-//W3C//DTD SVG 20010904//EN"
 "http://www.w3.org/TR/2001/REC-SVG-20010904/DTD/svg10.dtd">
<svg version="1.0" xmlns="http://www.w3.org/2000/svg"
 width="500.000000pt" height="500.000000pt" viewBox="0 0 500.000000 500.000000"
 preserveAspectRatio="xMidYMid meet">

<g transform="translate(0.000000,500.000000) scale(0.100000,-0.100000)"
fill="#000000" stroke="none">
<path d="M1733 3528 c-11 -13 -33 -45 -48 -73 -15 -27 -48 -86 -74 -130 -26
-44 -85 -145 -131 -225 -46 -80 -104 -179 -129 -220 -42 -69 -46 -80 -44 -136
1 -64 22 -118 72 -183 30 -40 129 -107 171 -116 l30 -7 0 -467 c0 -459 0 -469
21 -495 l20 -26 875 0 875 0 24 25 25 24 0 471 c0 325 3 470 11 470 5 0 34 11
64 25 99 47 174 144 197 255 l12 58 -54 93 c-29 52 -64 114 -78 139 -14 25
-43 73 -64 108 -21 34 -38 64 -38 66 0 8 -180 313 -200 339 l-22 27 -747 0
-748 0 -20 -22z m1468 -175 c14 -27 61 -109 104 -183 43 -74 116 -199 161
-278 l83 -143 -15 -40 c-33 -81 -124 -135 -213 -126 -96 10 -159 71 -182 175
-12 57 -36 82 -81 82 -37 0 -66 -31 -74 -79 -20 -125 -141 -204 -262 -171 -59
15 -127 83 -136 136 -15 76 -31 102 -70 110 -53 9 -80 -12 -94 -78 -23 -102
-87 -164 -180 -175 -61 -7 -112 9 -159 50 -40 35 -72 97 -73 139 0 31 -41 68
-75 68 -36 0 -75 -37 -75 -71 0 -89 -107 -189 -202 -189 -86 0 -168 56 -196
132 -12 35 -11 37 114 254 69 120 154 267 187 326 l62 108 675 0 675 0 26 -47z
m-1222 -828 c18 -19 59 -47 90 -62 49 -24 67 -28 151 -27 84 0 101 3 150 28
30 15 72 44 93 64 l37 36 38 -36 c20 -20 62 -49 92 -64 49 -25 66 -28 150 -28
84 0 101 3 150 28 30 15 72 44 92 64 l38 36 32 -31 c35 -33 140 -93 164 -93
12 0 14 -67 14 -420 l0 -420 -85 0 -85 0 0 269 c0 163 -4 281 -10 297 -20 52
-27 53 -283 54 l-238 0 -24 -25 -25 -24 0 -286 0 -285 -395 0 -395 0 0 418 0
418 48 17 c26 10 72 37 102 62 30 24 57 44 60 44 3 1 20 -15 39 -34z m971
-690 l0 -235 -140 0 -140 0 0 235 0 235 140 0 140 0 0 -235z"/>
<path d="M2050 3307 c-26 -13 -54 -73 -104 -222 -31 -93 -31 -95 -5 -129 27
-34 77 -36 106 -3 25 27 103 248 103 292 0 52 -54 85 -100 62z"/>
<path d="M2457 3300 l-27 -21 0 -163 c0 -143 2 -165 18 -179 30 -27 73 -26
102 3 18 18 20 33 20 174 0 132 -2 157 -17 174 -27 32 -64 37 -96 12z"/>
<path d="M2882 3304 c-41 -29 -45 -57 -16 -137 14 -40 34 -100 46 -134 27 -81
49 -105 95 -101 26 2 42 11 57 31 l21 28 -28 82 c-63 185 -78 217 -107 232
-36 19 -40 19 -68 -1z"/>
<path d="M1915 2194 c-25 -26 -25 -30 -25 -201 l0 -175 29 -29 29 -29 172 0
c185 0 222 9 234 54 3 12 6 97 6 189 0 230 14 217 -235 217 l-186 0 -24 -26z
m295 -199 l0 -75 -85 0 -85 0 0 75 0 75 85 0 85 0 0 -75z"/>
</g>
</svg>
