<?xml version="1.0" standalone="no"?>
<!DOCTYPE svg PUBLIC "-//W3C//DTD SVG 20010904//EN"
 "http://www.w3.org/TR/2001/REC-SVG-20010904/DTD/svg10.dtd">
<svg version="1.0" xmlns="http://www.w3.org/2000/svg"
 width="552.000000pt" height="452.000000pt" viewBox="0 0 552.000000 452.000000"
 preserveAspectRatio="xMidYMid meet">

<g transform="translate(0.000000,452.000000) scale(0.100000,-0.100000)"
fill="#000000" stroke="none">
<path d="M2890 2683 c0 -1388 3 -1320 -63 -1448 -45 -87 -156 -193 -248 -239
-185 -91 -385 -82 -553 24 -195 123 -294 362 -241 583 37 159 156 307 296 370
86 39 179 60 252 56 l52 -3 0 259 0 260 -95 3 c-309 9 -649 -167 -841 -438
-95 -133 -152 -264 -184 -419 -24 -118 -17 -372 14 -486 127 -471 559 -801
1046 -798 474 2 901 328 1025 783 38 136 40 195 41 972 l0 763 32 -40 c60 -76
179 -185 253 -231 149 -93 279 -133 462 -141 l132 -6 0 295 0 295 -47 7 c-320
43 -586 234 -728 521 -48 97 -95 245 -95 299 0 14 -27 16 -255 16 l-255 0 0
-1257z"/>
</g>
</svg>
